HIERARCHY
ROOT Hips
{
	OFFSET 0.00 0.00 0.00
	CHANNELS 6 Xposition Yposition Zposition Xrotation Yrotation Zrotation
	JOINT Spine
	{
		OFFSET 0.00000 6.11665 0.00000
		CHANNELS 3 Xrotation Yrotation Zrotation
		JOINT Head
		{
			OFFSET 0.00000 15.22556 0.00000
			CHANNELS 3 Xrotation Yrotation Zrotation
			End Site
			{
				OFFSET 0.00000 4.52755 0.00000
			}
		}
		JOINT LeftShoulder
		{
			OFFSET 0.00000 8.97765 0.00000
			CHANNELS 3 Xrotation Yrotation Zrotation
			JOINT LeftArm
			{
				OFFSET 7.11013 0.00000 0.00000
				CHANNELS 3 Xrotation Yrotation Zrotation
				JOINT LeftForeArm
				{
					OFFSET 10.39834 0.00000 0.00000
					CHANNELS 3 Yrotation Zrotation Xrotation
					JOINT LeftHand
					{
						OFFSET 8.88900 0.00000 0.00000
						CHANNELS 3 Xrotation Yrotation Zrotation
						JOINT LeftHandThumb1
						{
							OFFSET 0.00000 0.00000 0.00000
							CHANNELS 3 Xrotation Zrotation Yrotation
							End Site
							{
								OFFSET 0.00000 0.00000 3.93700
							}
						}
						End Site
						{
							OFFSET 3.93700 0.00000 0.00000
						}
					}
				}
			}
		}
		JOINT RightShoulder
		{
			OFFSET 0.00000 8.97765 0.00000
			CHANNELS 3 Xrotation Yrotation Zrotation
			JOINT RightArm
			{
				OFFSET -7.11013 0.00000 0.00000
				CHANNELS 3 Xrotation Yrotation Zrotation
				JOINT RightForeArm
				{
					OFFSET -10.39834 0.00000 0.00000
					CHANNELS 3 Yrotation Zrotation Xrotation
					JOINT RightHand
					{
						OFFSET -8.88900 0.00000 0.00000
						CHANNELS 3 Xrotation Yrotation Zrotation
						JOINT RightHandThumb1
						{
							OFFSET 0.00000 0.00000 0.00000
							CHANNELS 3 Xrotation Zrotation Yrotation
							End Site
							{
								OFFSET 0.00000 0.00000 3.93700
							}
						}
						End Site
						{
							OFFSET -3.93700 0.00000 0.00000
						}
					}
				}
			}
		}
	}
	JOINT LeftUpLeg
	{
		OFFSET 4.71176 0.00000 0.00000
		CHANNELS 3 Xrotation Yrotation Zrotation
		JOINT LeftLeg
		{
			OFFSET 0.00000 -15.51045 0.00000
			CHANNELS 3 Xrotation Yrotation Zrotation
			JOINT LeftFoot
			{
				OFFSET 0.00000 -14.85806 0.00000
				CHANNELS 3 Xrotation Yrotation Zrotation
				JOINT LeftToeBase
				{
					OFFSET 0.00000 -1.32744 4.95409
					CHANNELS 3 Xrotation Yrotation Zrotation
					End Site
					{
						OFFSET 0.00000 0.00000 2.95275
					}
				}
			}
		}
	}
	JOINT RightUpLeg
	{
		OFFSET -4.71176 0.00000 0.00000
		CHANNELS 3 Xrotation Yrotation Zrotation
		JOINT RightLeg
		{
			OFFSET 0.00000 -15.51045 0.00000
			CHANNELS 3 Xrotation Yrotation Zrotation
			JOINT RightFoot
			{
				OFFSET 0.00000 -14.85806 0.00000
				CHANNELS 3 Xrotation Yrotation Zrotation
				JOINT RightToeBase
				{
					OFFSET 0.00000 -1.32744 4.95409
					CHANNELS 3 Xrotation Yrotation Zrotation
					End Site
					{
						OFFSET 0.00000 0.00000 2.95275
					}
				}
			}
		}
	}
}
MOTION
Frames: 11
Frame Time: 0.008333
 3.5080 32.2687 0.9557 -4.0650 0.7294 0.6464 1.3601 11.6858 -2.1445 1.9974 -26.4322 -5.5720 -7.0352 4.3201 19.5269 -1.6938 -38.3005 -97.6556 -16.0392 -0.0000 4.8662 -0.3684 -10.5912 -2.0035 33.1476 -0.0000 26.2537 13.8477 -20.0269 -40.0191 -25.1623 33.0248 9.3630 86.4490 0.0000 -20.9696 4.3341 27.2303 -9.4048 32.8623 0.0000 -24.3270 10.3057 -0.0003 0.0495 2.8184 -0.0000 -0.0000 -12.8342 22.5940 -14.4868 16.1277 -0.0000 0.0000 10.0216 -7.0457 3.1636 0.3878 0.0000 -0.0000 -10.6227 -19.3728 5.2110 10.2362 -0.0000 0.0000
 3.5155 32.2671 0.9637 -4.0898 0.7891 0.6534 1.3475 11.6145 -2.1139 2.0209 -26.3941 -5.5225 -7.0765 4.3104 19.5545 -1.7096 -38.3181 -97.7293 -15.8972 -0.0000 4.9517 -0.4088 -10.6518 -2.2107 33.1476 -0.0000 26.2537 14.0711 -20.1099 -39.8513 -26.0222 32.6944 9.8113 86.4571 0.0000 -20.9350 4.3806 27.1932 -9.5159 32.8623 0.0000 -24.3270 10.3333 -0.0245 0.0420 2.8136 -0.0000 0.0000 -12.8387 22.5637 -14.5212 16.2583 0.0000 -0.0000 10.0603 -7.0775 3.1536 0.4021 0.0000 0.0000 -10.6487 -19.3978 5.1971 10.1494 -0.0000 -0.0000
 3.5237 32.2660 0.9714 -4.1167 0.8445 0.6654 1.3365 11.5480 -2.0870 2.0497 -26.3624 -5.4766 -7.0746 4.3082 19.5883 -1.7712 -38.3197 -97.8147 -15.7590 -0.0000 5.0300 -0.3968 -10.5686 -2.1624 33.1476 -0.0000 26.2537 14.2632 -20.2048 -39.7025 -26.9642 32.3417 10.3633 86.4662 0.0000 -20.9689 4.4807 27.0515 -9.7762 32.8623 0.0000 -24.3270 10.3549 -0.0528 0.0258 2.8359 0.0000 -0.0000 -12.8654 22.5363 -14.4923 16.2757 0.0000 -0.0000 10.1019 -7.1054 3.1365 0.4116 0.0000 -0.0000 -10.6844 -19.4255 5.2035 10.1154 0.0000 -0.0000
 3.5312 32.2653 0.9791 -4.1367 0.8910 0.6826 1.3193 11.4864 -2.0594 2.0691 -26.3199 -5.4508 -7.0603 4.3069 19.6076 -1.8271 -38.3199 -97.8755 -15.6327 -0.0000 4.9076 -0.5920 -10.6218 -3.2086 33.1476 -0.0000 26.2537 14.2851 -20.1278 -39.6150 -27.7733 31.9125 10.9977 86.4718 0.0000 -21.0052 4.4163 27.0496 -9.6386 32.8623 0.0000 -24.3270 10.3734 -0.0523 0.0070 2.8431 0.0000 -0.0000 -12.9188 22.4628 -14.3146 16.4821 0.0000 -0.0000 10.1326 -7.1360 3.1069 0.4292 -0.0000 -0.0000 -10.7176 -19.4368 5.2878 10.1772 -0.0000 0.0000
 3.5401 32.2645 0.9870 -4.1642 0.9433 0.6880 1.3106 11.4222 -2.0171 2.0768 -26.3035 -5.4193 -7.0718 4.2950 19.6401 -1.8806 -38.3147 -97.9726 -15.4807 -0.0000 4.9447 -0.5849 -10.6381 -3.1653 33.1476 -0.0000 26.2537 14.1072 -19.9079 -39.6679 -28.4475 31.3638 11.8044 86.5279 0.0000 -21.0880 4.3977 27.0107 -9.6111 32.8623 0.0000 -24.3270 10.4053 -0.1118 -0.0019 2.8443 -0.0000 0.0000 -12.9694 22.5289 -14.4342 16.7743 0.0000 -0.0000 10.1813 -7.1747 3.1017 0.4261 -0.0000 -0.0000 -10.7407 -19.4681 5.2136 10.1688 0.0000 0.0000
 3.5503 32.2632 0.9938 -4.1831 0.9689 0.7023 1.2796 11.2924 -1.9426 2.0598 -26.1599 -5.4848 -7.0668 4.3519 19.6424 -1.9011 -38.3261 -98.0325 -15.3590 -0.0000 4.9588 -0.5738 -10.6395 -3.1049 33.1476 -0.0000 26.2537 13.8908 -19.6898 -39.7034 -29.1813 31.0028 12.5550 86.4176 0.0000 -21.2660 4.5603 27.1308 -9.9209 32.8623 0.0000 -24.3270 10.4282 -0.1406 -0.0301 2.8620 -0.0000 0.0000 -13.0088 22.5350 -14.4375 16.7291 -0.0000 0.0000 10.2053 -7.1952 3.0751 0.4435 0.0000 -0.0000 -10.7750 -19.4855 5.2113 10.1392 0.0000 -0.0000
 3.5571 32.2630 1.0013 -4.2030 1.0098 0.7007 1.2506 11.2278 -1.8844 2.0874 -26.1387 -5.4666 -7.0867 4.3058 19.6808 -1.9120 -38.3199 -98.1292 -15.2315 -0.0000 5.1617 -0.3781 -10.5390 -2.0664 33.1476 -0.0000 26.2537 13.7458 -19.5255 -39.6567 -30.0146 30.5027 13.3374 86.3933 0.0000 -21.4126 4.4837 27.0977 -9.7677 32.8623 0.0000 -24.3270 10.4536 -0.1508 -0.0304 2.8593 -0.0000 0.0000 -13.0090 22.4984 -14.4368 16.7714 -0.0000 0.0000 10.2427 -7.2713 3.0769 0.4469 0.0000 -0.0000 -10.7809 -19.4646 5.1962 10.1380 0.0000 0.0000
 3.5711 32.2619 1.0163 -4.2692 0.9825 0.7296 1.2646 11.2459 -1.8402 2.1223 -26.1237 -5.4720 -7.0789 4.2634 19.7299 -1.9722 -38.3197 -98.2552 -15.0924 -0.0000 4.9570 -0.5842 -10.6199 -3.1667 33.1476 -0.0000 26.2537 13.3294 -19.1551 -39.7466 -30.5284 29.9376 14.1992 86.3135 0.0000 -21.4189 4.3944 27.0050 -9.6058 32.8623 0.0000 -24.3270 10.5304 -0.2739 -0.0903 2.9194 0.0000 -0.0000 -13.0256 22.5512 -14.2857 16.4179 -0.0000 -0.0000 10.3352 -7.2431 3.0211 0.4313 -0.0000 0.0000 -10.8180 -19.4856 5.1973 10.1371 -0.0000 0.0000
 3.5866 32.2607 1.0321 -4.3463 0.9780 0.7643 1.2892 11.2223 -1.7846 2.1459 -26.1243 -5.5149 -7.1047 4.2115 19.7753 -1.9888 -38.3093 -98.3856 -14.9606 -0.0000 4.9718 -0.5966 -10.6242 -3.2328 33.1476 -0.0000 26.2537 12.9023 -18.7367 -39.8652 -31.1313 29.2735 15.1222 86.3285 0.0000 -21.3398 4.2926 27.3082 -9.2917 32.8623 0.0000 -24.3270 10.6145 -0.2987 -0.1461 2.9699 -0.0000 -0.0000 -13.0265 22.6426 -14.6573 16.5102 -0.0000 0.0000 10.4310 -7.4159 2.9590 0.4517 0.0000 -0.0000 -10.8546 -19.3236 5.2524 10.0742 0.0000 0.0000
 3.5957 32.2603 1.0396 -4.3560 0.9930 0.7706 1.2433 11.1698 -1.7131 2.1831 -26.1042 -5.5474 -7.0855 4.1879 19.8157 -2.0361 -38.3664 -98.4866 -14.8760 -0.0000 4.9358 -0.5953 -10.6340 -3.2228 33.1476 -0.0000 26.2537 12.4183 -18.3032 -39.9915 -31.7385 28.6259 16.1093 86.2716 0.0000 -21.1738 4.3647 27.5402 -9.3736 32.8623 0.0000 -24.3270 10.6344 -0.2656 -0.1656 2.9610 -0.0000 0.0000 -13.0516 22.5020 -14.2776 16.4911 -0.0000 -0.0000 10.4572 -7.3993 2.9385 0.4462 -0.0000 -0.0000 -10.8630 -19.3587 5.2937 10.0768 0.0000 -0.0000
 3.6079 32.2597 1.0503 -4.3899 0.9866 0.7890 1.2137 11.1421 -1.6498 2.2478 -26.0825 -5.5402 -7.0779 4.1535 19.8616 -2.0770 -38.4226 -98.6010 -14.7947 -0.0000 4.9147 -0.5806 -10.6073 -3.1511 33.1476 -0.0000 26.2537 11.8170 -17.8083 -40.1364 -32.2673 27.9498 17.1417 86.1794 0.0000 -20.9389 4.3186 27.7107 -9.2242 32.8623 0.0000 -24.3270 10.6777 -0.1721 -0.1986 2.9828 -0.0000 0.0000 -13.1021 22.4653 -14.4426 16.8297 -0.0000 -0.0000 10.5201 -7.4053 2.8960 0.4227 0.0000 -0.0000 -10.8786 -19.3348 5.3056 10.0777 -0.0000 0.0000
